<mxfile host="app.diagrams.net" modified="2024-03-27T14:08:15.183Z" agent="Mozilla/5.0 (Windows NT 10.0; Win64; x64) AppleWebKit/537.36 (KHTML, like Gecko) Chrome/122.0.0.0 Safari/537.36 Edg/122.0.0.0" etag="WMSn-ZulC0Wj1W-CGp5B" version="24.2.0" type="github">
  <diagram name="第 1 页" id="KsNKFCTQwMYD-azODsON">
    <mxGraphModel dx="683" dy="425" grid="1" gridSize="10" guides="1" tooltips="1" connect="1" arrows="1" fold="1" page="1" pageScale="1" pageWidth="827" pageHeight="1169" math="0" shadow="0">
      <root>
        <mxCell id="0" />
        <mxCell id="1" parent="0" />
        <mxCell id="XD2vdVGCXBDhNRAHxb8r-34" value="Customer" style="swimlane;fontStyle=1;align=center;verticalAlign=top;childLayout=stackLayout;horizontal=1;startSize=31.5;horizontalStack=0;resizeParent=1;resizeParentMax=0;resizeLast=0;collapsible=0;marginBottom=0;" vertex="1" parent="1">
          <mxGeometry x="40" y="340.37" width="126" height="103.5" as="geometry" />
        </mxCell>
        <mxCell id="XD2vdVGCXBDhNRAHxb8r-35" value="-String name" style="text;strokeColor=none;fillColor=none;align=left;verticalAlign=top;spacingLeft=4;spacingRight=4;overflow=hidden;rotatable=0;points=[[0,0.5],[1,0.5]];portConstraint=eastwest;" vertex="1" parent="XD2vdVGCXBDhNRAHxb8r-34">
          <mxGeometry y="31.5" width="126" height="32" as="geometry" />
        </mxCell>
        <mxCell id="XD2vdVGCXBDhNRAHxb8r-36" style="line;strokeWidth=1;fillColor=none;align=left;verticalAlign=middle;spacingTop=-1;spacingLeft=3;spacingRight=3;rotatable=0;labelPosition=right;points=[];portConstraint=eastwest;strokeColor=inherit;" vertex="1" parent="XD2vdVGCXBDhNRAHxb8r-34">
          <mxGeometry y="63.5" width="126" height="8" as="geometry" />
        </mxCell>
        <mxCell id="XD2vdVGCXBDhNRAHxb8r-37" value="+buyBeverage()" style="text;strokeColor=none;fillColor=none;align=left;verticalAlign=top;spacingLeft=4;spacingRight=4;overflow=hidden;rotatable=0;points=[[0,0.5],[1,0.5]];portConstraint=eastwest;" vertex="1" parent="XD2vdVGCXBDhNRAHxb8r-34">
          <mxGeometry y="71.5" width="126" height="32" as="geometry" />
        </mxCell>
        <mxCell id="XD2vdVGCXBDhNRAHxb8r-38" value="Supplier" style="swimlane;fontStyle=1;align=center;verticalAlign=top;childLayout=stackLayout;horizontal=1;startSize=31.5;horizontalStack=0;resizeParent=1;resizeParentMax=0;resizeLast=0;collapsible=0;marginBottom=0;" vertex="1" parent="1">
          <mxGeometry x="226" y="341" width="140" height="103.5" as="geometry" />
        </mxCell>
        <mxCell id="XD2vdVGCXBDhNRAHxb8r-39" value="-String name" style="text;strokeColor=none;fillColor=none;align=left;verticalAlign=top;spacingLeft=4;spacingRight=4;overflow=hidden;rotatable=0;points=[[0,0.5],[1,0.5]];portConstraint=eastwest;" vertex="1" parent="XD2vdVGCXBDhNRAHxb8r-38">
          <mxGeometry y="31.5" width="140" height="32" as="geometry" />
        </mxCell>
        <mxCell id="XD2vdVGCXBDhNRAHxb8r-40" style="line;strokeWidth=1;fillColor=none;align=left;verticalAlign=middle;spacingTop=-1;spacingLeft=3;spacingRight=3;rotatable=0;labelPosition=right;points=[];portConstraint=eastwest;strokeColor=inherit;" vertex="1" parent="XD2vdVGCXBDhNRAHxb8r-38">
          <mxGeometry y="63.5" width="140" height="8" as="geometry" />
        </mxCell>
        <mxCell id="XD2vdVGCXBDhNRAHxb8r-41" value="+placeBeverage()" style="text;strokeColor=none;fillColor=none;align=left;verticalAlign=top;spacingLeft=4;spacingRight=4;overflow=hidden;rotatable=0;points=[[0,0.5],[1,0.5]];portConstraint=eastwest;" vertex="1" parent="XD2vdVGCXBDhNRAHxb8r-38">
          <mxGeometry y="71.5" width="140" height="32" as="geometry" />
        </mxCell>
        <mxCell id="XD2vdVGCXBDhNRAHxb8r-42" value="Cashier" style="swimlane;fontStyle=1;align=center;verticalAlign=top;childLayout=stackLayout;horizontal=1;startSize=29.25;horizontalStack=0;resizeParent=1;resizeParentMax=0;resizeLast=0;collapsible=0;marginBottom=0;" vertex="1" parent="1">
          <mxGeometry x="416" y="330" width="136" height="124.25" as="geometry" />
        </mxCell>
        <mxCell id="XD2vdVGCXBDhNRAHxb8r-43" value="-String name" style="text;strokeColor=none;fillColor=none;align=left;verticalAlign=top;spacingLeft=4;spacingRight=4;overflow=hidden;rotatable=0;points=[[0,0.5],[1,0.5]];portConstraint=eastwest;" vertex="1" parent="XD2vdVGCXBDhNRAHxb8r-42">
          <mxGeometry y="29.25" width="136" height="29" as="geometry" />
        </mxCell>
        <mxCell id="XD2vdVGCXBDhNRAHxb8r-44" style="line;strokeWidth=1;fillColor=none;align=left;verticalAlign=middle;spacingTop=-1;spacingLeft=3;spacingRight=3;rotatable=0;labelPosition=right;points=[];portConstraint=eastwest;strokeColor=inherit;" vertex="1" parent="XD2vdVGCXBDhNRAHxb8r-42">
          <mxGeometry y="58.25" width="136" height="8" as="geometry" />
        </mxCell>
        <mxCell id="XD2vdVGCXBDhNRAHxb8r-45" value="+placeChange()" style="text;strokeColor=none;fillColor=none;align=left;verticalAlign=top;spacingLeft=4;spacingRight=4;overflow=hidden;rotatable=0;points=[[0,0.5],[1,0.5]];portConstraint=eastwest;" vertex="1" parent="XD2vdVGCXBDhNRAHxb8r-42">
          <mxGeometry y="66.25" width="136" height="29" as="geometry" />
        </mxCell>
        <mxCell id="XD2vdVGCXBDhNRAHxb8r-46" value="+collectIncome()" style="text;strokeColor=none;fillColor=none;align=left;verticalAlign=top;spacingLeft=4;spacingRight=4;overflow=hidden;rotatable=0;points=[[0,0.5],[1,0.5]];portConstraint=eastwest;" vertex="1" parent="XD2vdVGCXBDhNRAHxb8r-42">
          <mxGeometry y="95.25" width="136" height="29" as="geometry" />
        </mxCell>
        <mxCell id="XD2vdVGCXBDhNRAHxb8r-47" value="BeverageMachine" style="swimlane;fontStyle=1;align=center;verticalAlign=top;childLayout=stackLayout;horizontal=1;startSize=27.9;horizontalStack=0;resizeParent=1;resizeParentMax=0;resizeLast=0;collapsible=0;marginBottom=0;" vertex="1" parent="1">
          <mxGeometry x="215" y="524" width="162" height="147.9" as="geometry" />
        </mxCell>
        <mxCell id="XD2vdVGCXBDhNRAHxb8r-48" value="-int beverageStock" style="text;strokeColor=none;fillColor=none;align=left;verticalAlign=top;spacingLeft=4;spacingRight=4;overflow=hidden;rotatable=0;points=[[0,0.5],[1,0.5]];portConstraint=eastwest;" vertex="1" parent="XD2vdVGCXBDhNRAHxb8r-47">
          <mxGeometry y="27.9" width="162" height="28" as="geometry" />
        </mxCell>
        <mxCell id="XD2vdVGCXBDhNRAHxb8r-49" value="-float income" style="text;strokeColor=none;fillColor=none;align=left;verticalAlign=top;spacingLeft=4;spacingRight=4;overflow=hidden;rotatable=0;points=[[0,0.5],[1,0.5]];portConstraint=eastwest;" vertex="1" parent="XD2vdVGCXBDhNRAHxb8r-47">
          <mxGeometry y="55.9" width="162" height="28" as="geometry" />
        </mxCell>
        <mxCell id="XD2vdVGCXBDhNRAHxb8r-50" style="line;strokeWidth=1;fillColor=none;align=left;verticalAlign=middle;spacingTop=-1;spacingLeft=3;spacingRight=3;rotatable=0;labelPosition=right;points=[];portConstraint=eastwest;strokeColor=inherit;" vertex="1" parent="XD2vdVGCXBDhNRAHxb8r-47">
          <mxGeometry y="83.9" width="162" height="8" as="geometry" />
        </mxCell>
        <mxCell id="XD2vdVGCXBDhNRAHxb8r-51" value="+dispenseBeverage()" style="text;strokeColor=none;fillColor=none;align=left;verticalAlign=top;spacingLeft=4;spacingRight=4;overflow=hidden;rotatable=0;points=[[0,0.5],[1,0.5]];portConstraint=eastwest;" vertex="1" parent="XD2vdVGCXBDhNRAHxb8r-47">
          <mxGeometry y="91.9" width="162" height="28" as="geometry" />
        </mxCell>
        <mxCell id="XD2vdVGCXBDhNRAHxb8r-52" value="+acceptPayment()" style="text;strokeColor=none;fillColor=none;align=left;verticalAlign=top;spacingLeft=4;spacingRight=4;overflow=hidden;rotatable=0;points=[[0,0.5],[1,0.5]];portConstraint=eastwest;" vertex="1" parent="XD2vdVGCXBDhNRAHxb8r-47">
          <mxGeometry y="119.9" width="162" height="28" as="geometry" />
        </mxCell>
        <mxCell id="XD2vdVGCXBDhNRAHxb8r-53" value="buys from" style="curved=1;startArrow=none;endArrow=block;endSize=16;endFill=0;exitX=0.5016431051587301;exitY=0.9975728155339806;entryX=-0.00007233796296296296;entryY=0.17109967644187604;rounded=0;" edge="1" parent="1" source="XD2vdVGCXBDhNRAHxb8r-34" target="XD2vdVGCXBDhNRAHxb8r-47">
          <mxGeometry relative="1" as="geometry">
            <Array as="points">
              <mxPoint x="113" y="489" />
            </Array>
          </mxGeometry>
        </mxCell>
        <mxCell id="XD2vdVGCXBDhNRAHxb8r-54" value="supplies to" style="curved=1;startArrow=none;endArrow=block;endSize=16;endFill=0;exitX=0.5013671875;exitY=0.9975728155339806;entryX=0.5011815200617284;entryY=-0.0033783783783783786;rounded=0;" edge="1" parent="1" source="XD2vdVGCXBDhNRAHxb8r-38" target="XD2vdVGCXBDhNRAHxb8r-47">
          <mxGeometry relative="1" as="geometry">
            <Array as="points" />
          </mxGeometry>
        </mxCell>
        <mxCell id="XD2vdVGCXBDhNRAHxb8r-55" value="manages" style="curved=1;startArrow=none;endArrow=block;endSize=16;endFill=0;exitX=0.49899471507352944;exitY=1;entryX=1.0024353780864197;entryY=0.17918808097082173;rounded=0;" edge="1" parent="1" source="XD2vdVGCXBDhNRAHxb8r-42" target="XD2vdVGCXBDhNRAHxb8r-47">
          <mxGeometry relative="1" as="geometry">
            <Array as="points">
              <mxPoint x="484" y="489" />
            </Array>
          </mxGeometry>
        </mxCell>
      </root>
    </mxGraphModel>
  </diagram>
</mxfile>
